<svg xmlns="http://www.w3.org/2000/svg" xmlns:xlink="http://www.w3.org/1999/xlink" width="500" zoomAndPan="magnify" viewBox="0 0 375 74.999997" height="100" preserveAspectRatio="xMidYMid meet" version="1.0"><defs><g/></defs><g fill="#9d3be1" fill-opacity="1"><g transform="translate(25.818364, 51.356392)"><g><path d="M 8.988281 0 C 9.574219 0 11.234375 -0.03125 11.726562 -2.28125 C 14.167969 -13.777344 14.199219 -14.003906 14.199219 -14.234375 C 14.199219 -15.730469 12.863281 -15.761719 12.34375 -15.761719 L 9.476562 -15.761719 L 11.074219 -23.15625 L 15.859375 -23.15625 C 16.21875 -23.15625 16.578125 -23.449219 16.644531 -23.808594 L 17.261719 -26.835938 C 17.261719 -27.128906 17.066406 -27.359375 16.742188 -27.359375 L 9.023438 -27.359375 C 8.433594 -27.359375 6.773438 -27.324219 6.285156 -25.109375 C 3.8125 -13.386719 3.777344 -13.15625 3.777344 -12.929688 C 3.777344 -11.433594 5.113281 -11.398438 5.632812 -11.398438 L 8.5 -11.398438 L 7.035156 -4.59375 L 2.574219 -4.59375 C 2.214844 -4.59375 1.890625 -4.300781 1.792969 -3.941406 C 1.105469 -0.585938 1.074219 -0.519531 1.074219 -0.488281 C 1.074219 -0.195312 1.335938 0 1.628906 0 Z M 8.988281 0 "/></g></g></g><g fill="#9d3be1" fill-opacity="1"><g transform="translate(40.017499, 51.356392)"><g><path d="M 1.402344 -32.570312 C 1.042969 -32.570312 0.683594 -32.277344 0.617188 -31.917969 L 0 -29.019531 C 0 -28.628906 0.195312 -28.367188 0.519531 -28.367188 L 7.003906 -28.367188 C 1.105469 -0.585938 1.074219 -0.519531 1.074219 -0.488281 C 1.074219 -0.195312 1.335938 0 1.628906 0 L 5.472656 0 C 5.828125 0 6.15625 -0.292969 6.253906 -0.652344 L 12.148438 -28.367188 L 18.628906 -28.367188 C 18.988281 -28.367188 19.347656 -28.660156 19.410156 -29.019531 L 20.03125 -32.046875 C 20.03125 -32.339844 19.835938 -32.570312 19.507812 -32.570312 Z M 1.402344 -32.570312 "/></g></g></g><g fill="#9d3be1" fill-opacity="1"><g transform="translate(48.778027, 51.356392)"><g><path d="M 16.316406 -15.925781 C 18.335938 -25.371094 18.367188 -25.597656 18.367188 -25.828125 C 18.367188 -27.324219 17.035156 -27.359375 16.511719 -27.359375 L 7.425781 -27.359375 C 7.066406 -27.359375 6.710938 -27.066406 6.644531 -26.707031 C 1.105469 -0.585938 1.074219 -0.519531 1.074219 -0.488281 C 1.074219 -0.195312 1.335938 0 1.628906 0 L 5.503906 0 C 5.863281 0 6.1875 -0.292969 6.285156 -0.652344 L 8.597656 -11.59375 L 10.160156 -11.59375 C 7.847656 -0.585938 7.816406 -0.519531 7.816406 -0.488281 C 7.816406 -0.195312 8.078125 0 8.371094 0 L 12.246094 0 C 12.605469 0 12.929688 -0.292969 13.027344 -0.652344 C 15.339844 -11.496094 15.371094 -11.726562 15.371094 -11.953125 C 15.371094 -13.484375 14.039062 -13.484375 13.515625 -13.484375 L 13.582031 -13.644531 C 14.167969 -13.644531 15.859375 -13.644531 16.316406 -15.925781 Z M 11.074219 -23.15625 L 12.636719 -23.15625 L 11.039062 -15.761719 L 9.476562 -15.761719 Z M 11.074219 -23.15625 "/></g></g></g><g fill="#9d3be1" fill-opacity="1"><g transform="translate(64.344957, 51.356392)"><g><path d="M 6.644531 -26.707031 C 1.105469 -0.585938 1.074219 -0.519531 1.074219 -0.488281 C 1.074219 -0.195312 1.335938 0 1.628906 0 L 11.136719 0 C 11.496094 0 11.824219 -0.292969 11.921875 -0.652344 L 12.507812 -3.550781 L 12.507812 -3.679688 C 12.507812 -3.972656 12.3125 -4.203125 11.984375 -4.203125 L 7.035156 -4.203125 L 8.664062 -11.921875 L 12.019531 -11.921875 C 12.375 -11.921875 12.734375 -12.214844 12.832031 -12.570312 C 13.484375 -15.828125 13.515625 -15.859375 13.515625 -15.925781 C 13.515625 -16.21875 13.289062 -16.414062 12.996094 -16.414062 L 9.640625 -16.414062 L 11.074219 -23.15625 L 16.023438 -23.15625 C 16.382812 -23.15625 16.742188 -23.449219 16.804688 -23.808594 L 17.457031 -26.835938 C 17.457031 -27.128906 17.261719 -27.359375 16.9375 -27.359375 L 7.425781 -27.359375 C 7.066406 -27.359375 6.710938 -27.066406 6.644531 -26.707031 Z M 6.644531 -26.707031 "/></g></g></g><g fill="#9d3be1" fill-opacity="1"><g transform="translate(78.739494, 51.356392)"><g><path d="M 9.023438 -27.359375 C 8.433594 -27.359375 6.773438 -27.324219 6.285156 -25.078125 C 1.105469 -0.585938 1.074219 -0.519531 1.074219 -0.488281 C 1.074219 -0.195312 1.335938 0 1.628906 0 L 5.503906 0 C 5.863281 0 6.1875 -0.292969 6.285156 -0.652344 L 8.175781 -9.640625 L 9.738281 -9.640625 C 7.847656 -0.585938 7.816406 -0.519531 7.816406 -0.488281 C 7.816406 -0.195312 8.078125 0 8.371094 0 L 12.246094 0 C 12.605469 0 12.929688 -0.292969 13.027344 -0.652344 C 18.335938 -25.371094 18.367188 -25.597656 18.367188 -25.828125 C 18.367188 -27.324219 17.035156 -27.359375 16.511719 -27.359375 Z M 11.074219 -23.15625 L 12.636719 -23.15625 L 10.648438 -13.808594 L 9.085938 -13.808594 Z M 11.074219 -23.15625 "/></g></g></g><g fill="#9d3be1" fill-opacity="1"><g transform="translate(94.306424, 51.356392)"><g><path d="M 9.054688 -27.359375 C 8.46875 -27.359375 6.773438 -27.359375 6.285156 -25.078125 C 1.105469 -0.585938 1.074219 -0.519531 1.074219 -0.488281 C 1.074219 -0.195312 1.335938 0 1.628906 0 L 5.503906 0 C 5.863281 0 6.1875 -0.292969 6.285156 -0.652344 L 11.074219 -23.15625 L 12.636719 -23.15625 C 7.847656 -0.554688 7.816406 -0.519531 7.816406 -0.457031 C 7.816406 -0.164062 8.042969 0.03125 8.335938 0.03125 L 12.214844 0.03125 C 12.570312 0.03125 12.929688 -0.261719 13.027344 -0.617188 L 17.816406 -23.15625 L 19.410156 -23.15625 C 14.625 -0.585938 14.589844 -0.519531 14.589844 -0.488281 C 14.589844 -0.195312 14.851562 0 15.144531 0 L 18.988281 0 C 19.347656 0 19.671875 -0.292969 19.769531 -0.652344 C 24.980469 -25.371094 25.011719 -25.597656 25.011719 -25.828125 C 25.011719 -27.359375 23.644531 -27.359375 23.125 -27.359375 L 18.367188 -27.359375 C 16.089844 -27.359375 15.730469 -25.730469 15.632812 -25.144531 L 15.46875 -25.144531 C 15.503906 -25.371094 15.535156 -25.632812 15.535156 -25.890625 C 15.535156 -26.578125 15.242188 -27.359375 13.644531 -27.359375 Z M 9.054688 -27.359375 "/></g></g></g><g fill="#9d3be1" fill-opacity="1"><g transform="translate(116.549491, 51.356392)"><g><path d="M 11.824219 -26.835938 C 11.824219 -27.128906 11.628906 -27.359375 11.300781 -27.359375 L 7.425781 -27.359375 C 7.066406 -27.359375 6.710938 -27.066406 6.644531 -26.707031 L -0.128906 5.339844 C -0.128906 5.632812 0.03125 5.863281 0.359375 5.863281 L 11.628906 5.863281 C 11.984375 5.863281 12.34375 5.570312 12.410156 5.210938 L 13.125 1.988281 L 13.125 1.855469 C 13.125 1.5625 12.929688 1.335938 12.605469 1.335938 L 5.863281 1.335938 Z M 11.824219 -26.835938 "/></g></g></g><g fill="#9d3be1" fill-opacity="1"><g transform="translate(125.310018, 51.356392)"><g><path d="M 7.425781 -27.359375 C 7.066406 -27.359375 6.710938 -27.066406 6.644531 -26.707031 C 1.105469 -0.585938 1.074219 -0.519531 1.074219 -0.488281 C 1.074219 -0.195312 1.335938 0 1.628906 0 L 5.503906 0 C 5.863281 0 6.1875 -0.292969 6.285156 -0.652344 L 11.824219 -26.835938 C 11.824219 -27.128906 11.628906 -27.359375 11.300781 -27.359375 Z M 7.425781 -27.359375 "/></g></g></g><g fill="#9d3be1" fill-opacity="1"><g transform="translate(134.070544, 51.356392)"><g><path d="M 1.402344 -32.570312 C 1.042969 -32.570312 0.683594 -32.277344 0.617188 -31.917969 L 0 -29.019531 C 0 -28.628906 0.195312 -28.367188 0.519531 -28.367188 L 7.003906 -28.367188 C 1.105469 -0.585938 1.074219 -0.519531 1.074219 -0.488281 C 1.074219 -0.195312 1.335938 0 1.628906 0 L 5.472656 0 C 5.828125 0 6.15625 -0.292969 6.253906 -0.652344 L 12.148438 -28.367188 L 18.628906 -28.367188 C 18.988281 -28.367188 19.347656 -28.660156 19.410156 -29.019531 L 20.03125 -32.046875 C 20.03125 -32.339844 19.835938 -32.570312 19.507812 -32.570312 Z M 1.402344 -32.570312 "/></g></g></g><g fill="#9d3be1" fill-opacity="1"><g transform="translate(142.831071, 51.356392)"><g><path d="M 13.027344 -11.398438 C 13.386719 -11.398438 13.742188 -11.691406 13.808594 -12.050781 L 14.429688 -15.078125 C 14.429688 -15.371094 14.234375 -15.601562 13.90625 -15.601562 L 4.917969 -15.601562 C 4.558594 -15.601562 4.203125 -15.308594 4.136719 -14.949219 L 3.515625 -11.921875 C 3.515625 -11.628906 3.710938 -11.398438 4.039062 -11.398438 Z M 13.027344 -11.398438 "/></g></g></g><g fill="#9d3be1" fill-opacity="1"><g transform="translate(156.704535, 51.356392)"><g><path d="M 16.449219 -16.121094 C 18.402344 -25.371094 18.433594 -25.597656 18.433594 -25.828125 C 18.433594 -27.359375 17.066406 -27.359375 16.546875 -27.359375 L 7.425781 -27.359375 C 7.066406 -27.359375 6.710938 -27.066406 6.644531 -26.707031 C 1.105469 -0.585938 1.074219 -0.519531 1.074219 -0.488281 C 1.074219 -0.195312 1.335938 0 1.628906 0 L 10.746094 0 C 11.335938 0 13.027344 0 13.515625 -2.28125 C 15.503906 -11.691406 15.535156 -11.953125 15.535156 -12.179688 C 15.535156 -13.679688 14.234375 -13.679688 13.710938 -13.679688 L 13.742188 -13.84375 C 14.332031 -13.84375 15.957031 -13.84375 16.449219 -16.121094 Z M 8.597656 -11.59375 L 10.160156 -11.59375 L 8.597656 -4.203125 L 7.035156 -4.203125 Z M 11.074219 -23.15625 L 12.636719 -23.15625 L 11.039062 -15.761719 L 9.476562 -15.761719 Z M 11.074219 -23.15625 "/></g></g></g><g fill="#9d3be1" fill-opacity="1"><g transform="translate(172.3366, 51.356392)"><g><path d="M 11.824219 -26.835938 C 11.824219 -27.128906 11.628906 -27.359375 11.300781 -27.359375 L 7.425781 -27.359375 C 7.066406 -27.359375 6.710938 -27.066406 6.644531 -26.707031 L -0.128906 5.339844 C -0.128906 5.632812 0.03125 5.863281 0.359375 5.863281 L 11.628906 5.863281 C 11.984375 5.863281 12.34375 5.570312 12.410156 5.210938 L 13.125 1.988281 L 13.125 1.855469 C 13.125 1.5625 12.929688 1.335938 12.605469 1.335938 L 5.863281 1.335938 Z M 11.824219 -26.835938 "/></g></g></g><g fill="#9d3be1" fill-opacity="1"><g transform="translate(181.097127, 51.356392)"><g><path d="M 8.988281 0 C 9.574219 0 11.234375 -0.03125 11.726562 -2.28125 C 14.167969 -13.777344 14.199219 -14.003906 14.199219 -14.234375 C 14.199219 -15.730469 12.863281 -15.761719 12.34375 -15.761719 L 9.476562 -15.761719 L 11.074219 -23.15625 L 15.859375 -23.15625 C 16.21875 -23.15625 16.578125 -23.449219 16.644531 -23.808594 L 17.261719 -26.835938 C 17.261719 -27.128906 17.066406 -27.359375 16.742188 -27.359375 L 9.023438 -27.359375 C 8.433594 -27.359375 6.773438 -27.324219 6.285156 -25.109375 C 3.8125 -13.386719 3.777344 -13.15625 3.777344 -12.929688 C 3.777344 -11.433594 5.113281 -11.398438 5.632812 -11.398438 L 8.5 -11.398438 L 7.035156 -4.59375 L 2.574219 -4.59375 C 2.214844 -4.59375 1.890625 -4.300781 1.792969 -3.941406 C 1.105469 -0.585938 1.074219 -0.519531 1.074219 -0.488281 C 1.074219 -0.195312 1.335938 0 1.628906 0 Z M 8.988281 0 "/></g></g></g><g fill="#9d3be1" fill-opacity="1"><g transform="translate(195.296257, 51.356392)"><g><path d="M 13.027344 -11.398438 C 13.386719 -11.398438 13.742188 -11.691406 13.808594 -12.050781 L 14.429688 -15.078125 C 14.429688 -15.371094 14.234375 -15.601562 13.90625 -15.601562 L 4.917969 -15.601562 C 4.558594 -15.601562 4.203125 -15.308594 4.136719 -14.949219 L 3.515625 -11.921875 C 3.515625 -11.628906 3.710938 -11.398438 4.039062 -11.398438 Z M 13.027344 -11.398438 "/></g></g></g><g fill="#9d3be1" fill-opacity="1"><g transform="translate(209.169721, 51.356392)"><g><path d="M 6.285156 -25.078125 C 1.367188 -2.019531 1.367188 -1.757812 1.367188 -1.5625 C 1.367188 0 2.734375 0 3.257812 0 L 11.953125 0 C 12.3125 0 12.636719 -0.292969 12.734375 -0.652344 L 13.320312 -3.550781 L 13.320312 -3.679688 C 13.320312 -3.972656 13.125 -4.203125 12.800781 -4.203125 L 7.035156 -4.203125 L 11.074219 -23.15625 L 16.511719 -23.15625 C 16.871094 -23.15625 17.230469 -23.449219 17.292969 -23.808594 L 17.945312 -26.835938 C 17.945312 -27.128906 17.75 -27.359375 17.425781 -27.359375 L 9.054688 -27.359375 C 8.46875 -27.359375 6.773438 -27.359375 6.285156 -25.078125 Z M 6.285156 -25.078125 "/></g></g></g><g fill="#9d3be1" fill-opacity="1"><g transform="translate(223.857357, 51.356392)"><g><path d="M 6.285156 -25.078125 C 1.367188 -2.019531 1.367188 -1.757812 1.367188 -1.5625 C 1.367188 -0.03125 2.703125 0 3.222656 0 L 10.683594 0 C 11.269531 0 12.929688 -0.03125 13.417969 -2.28125 C 18.304688 -25.371094 18.335938 -25.597656 18.335938 -25.828125 C 18.335938 -27.324219 17 -27.359375 16.480469 -27.359375 L 8.988281 -27.359375 C 8.371094 -27.359375 6.773438 -27.292969 6.285156 -25.078125 Z M 8.597656 -4.203125 L 7.035156 -4.203125 L 11.074219 -23.15625 L 12.636719 -23.15625 Z M 8.597656 -4.203125 "/></g></g></g><g fill="#9d3be1" fill-opacity="1"><g transform="translate(239.391718, 51.356392)"><g><path d="M 7.425781 -27.359375 C 7.066406 -27.359375 6.710938 -27.066406 6.644531 -26.707031 C 1.105469 -0.585938 1.074219 -0.519531 1.074219 -0.488281 C 1.074219 -0.195312 1.335938 0 1.628906 0 L 5.082031 0 C 5.4375 0 5.765625 -0.292969 5.863281 -0.652344 L 8.5 -13.027344 C 9.933594 -0.585938 9.902344 -0.519531 9.902344 -0.488281 C 9.902344 -0.195312 10.160156 0 10.453125 0 L 13.84375 0 C 14.199219 0 14.527344 -0.292969 14.625 -0.652344 L 20.160156 -26.835938 C 20.160156 -27.128906 19.964844 -27.359375 19.640625 -27.359375 L 16.25 -27.359375 C 15.894531 -27.359375 15.535156 -27.066406 15.46875 -26.707031 L 12.636719 -13.351562 L 11.398438 -26.835938 C 11.398438 -27.128906 11.203125 -27.359375 10.878906 -27.359375 Z M 7.425781 -27.359375 "/></g></g></g><g fill="#9d3be1" fill-opacity="1"><g transform="translate(256.489274, 51.356392)"><g><path d="M 7.425781 -27.359375 C 7.066406 -27.359375 6.710938 -27.066406 6.644531 -26.707031 C 1.105469 -0.585938 1.074219 -0.519531 1.074219 -0.488281 C 1.074219 -0.195312 1.335938 0 1.628906 0 L 5.082031 0 C 5.4375 0 5.765625 -0.292969 5.863281 -0.652344 L 8.5 -13.027344 C 9.933594 -0.585938 9.902344 -0.519531 9.902344 -0.488281 C 9.902344 -0.195312 10.160156 0 10.453125 0 L 13.84375 0 C 14.199219 0 14.527344 -0.292969 14.625 -0.652344 L 20.160156 -26.835938 C 20.160156 -27.128906 19.964844 -27.359375 19.640625 -27.359375 L 16.25 -27.359375 C 15.894531 -27.359375 15.535156 -27.066406 15.46875 -26.707031 L 12.636719 -13.351562 L 11.398438 -26.835938 C 11.398438 -27.128906 11.203125 -27.359375 10.878906 -27.359375 Z M 7.425781 -27.359375 "/></g></g></g><g fill="#9d3be1" fill-opacity="1"><g transform="translate(273.586829, 51.356392)"><g><path d="M 6.644531 -26.707031 C 1.105469 -0.585938 1.074219 -0.519531 1.074219 -0.488281 C 1.074219 -0.195312 1.335938 0 1.628906 0 L 11.136719 0 C 11.496094 0 11.824219 -0.292969 11.921875 -0.652344 L 12.507812 -3.550781 L 12.507812 -3.679688 C 12.507812 -3.972656 12.3125 -4.203125 11.984375 -4.203125 L 7.035156 -4.203125 L 8.664062 -11.921875 L 12.019531 -11.921875 C 12.375 -11.921875 12.734375 -12.214844 12.832031 -12.570312 C 13.484375 -15.828125 13.515625 -15.859375 13.515625 -15.925781 C 13.515625 -16.21875 13.289062 -16.414062 12.996094 -16.414062 L 9.640625 -16.414062 L 11.074219 -23.15625 L 16.023438 -23.15625 C 16.382812 -23.15625 16.742188 -23.449219 16.804688 -23.808594 L 17.457031 -26.835938 C 17.457031 -27.128906 17.261719 -27.359375 16.9375 -27.359375 L 7.425781 -27.359375 C 7.066406 -27.359375 6.710938 -27.066406 6.644531 -26.707031 Z M 6.644531 -26.707031 "/></g></g></g><g fill="#9d3be1" fill-opacity="1"><g transform="translate(287.981367, 51.356392)"><g><path d="M 6.285156 -25.078125 C 1.367188 -2.019531 1.367188 -1.757812 1.367188 -1.5625 C 1.367188 0 2.734375 0 3.257812 0 L 11.953125 0 C 12.3125 0 12.636719 -0.292969 12.734375 -0.652344 L 13.320312 -3.550781 L 13.320312 -3.679688 C 13.320312 -3.972656 13.125 -4.203125 12.800781 -4.203125 L 7.035156 -4.203125 L 11.074219 -23.15625 L 16.511719 -23.15625 C 16.871094 -23.15625 17.230469 -23.449219 17.292969 -23.808594 L 17.945312 -26.835938 C 17.945312 -27.128906 17.75 -27.359375 17.425781 -27.359375 L 9.054688 -27.359375 C 8.46875 -27.359375 6.773438 -27.359375 6.285156 -25.078125 Z M 6.285156 -25.078125 "/></g></g></g><g fill="#9d3be1" fill-opacity="1"><g transform="translate(302.669002, 51.356392)"><g><path d="M 1.402344 -32.570312 C 1.042969 -32.570312 0.683594 -32.277344 0.617188 -31.917969 L 0 -29.019531 C 0 -28.628906 0.195312 -28.367188 0.519531 -28.367188 L 7.003906 -28.367188 C 1.105469 -0.585938 1.074219 -0.519531 1.074219 -0.488281 C 1.074219 -0.195312 1.335938 0 1.628906 0 L 5.472656 0 C 5.828125 0 6.15625 -0.292969 6.253906 -0.652344 L 12.148438 -28.367188 L 18.628906 -28.367188 C 18.988281 -28.367188 19.347656 -28.660156 19.410156 -29.019531 L 20.03125 -32.046875 C 20.03125 -32.339844 19.835938 -32.570312 19.507812 -32.570312 Z M 1.402344 -32.570312 "/></g></g></g><g fill="#9d3be1" fill-opacity="1"><g transform="translate(311.429542, 51.356392)"><g><path d="M 7.425781 -27.359375 C 7.066406 -27.359375 6.710938 -27.066406 6.644531 -26.707031 C 1.105469 -0.585938 1.074219 -0.519531 1.074219 -0.488281 C 1.074219 -0.195312 1.335938 0 1.628906 0 L 5.503906 0 C 5.863281 0 6.1875 -0.292969 6.285156 -0.652344 L 11.824219 -26.835938 C 11.824219 -27.128906 11.628906 -27.359375 11.300781 -27.359375 Z M 7.425781 -27.359375 "/></g></g></g><g fill="#9d3be1" fill-opacity="1"><g transform="translate(320.190081, 51.356392)"><g><path d="M 6.285156 -25.078125 C 1.367188 -2.019531 1.367188 -1.757812 1.367188 -1.5625 C 1.367188 -0.03125 2.703125 0 3.222656 0 L 10.683594 0 C 11.269531 0 12.929688 -0.03125 13.417969 -2.28125 C 18.304688 -25.371094 18.335938 -25.597656 18.335938 -25.828125 C 18.335938 -27.324219 17 -27.359375 16.480469 -27.359375 L 8.988281 -27.359375 C 8.371094 -27.359375 6.773438 -27.292969 6.285156 -25.078125 Z M 8.597656 -4.203125 L 7.035156 -4.203125 L 11.074219 -23.15625 L 12.636719 -23.15625 Z M 8.597656 -4.203125 "/></g></g></g><g fill="#9d3be1" fill-opacity="1"><g transform="translate(335.724455, 51.356392)"><g><path d="M 7.425781 -27.359375 C 7.066406 -27.359375 6.710938 -27.066406 6.644531 -26.707031 C 1.105469 -0.585938 1.074219 -0.519531 1.074219 -0.488281 C 1.074219 -0.195312 1.335938 0 1.628906 0 L 5.082031 0 C 5.4375 0 5.765625 -0.292969 5.863281 -0.652344 L 8.5 -13.027344 C 9.933594 -0.585938 9.902344 -0.519531 9.902344 -0.488281 C 9.902344 -0.195312 10.160156 0 10.453125 0 L 13.84375 0 C 14.199219 0 14.527344 -0.292969 14.625 -0.652344 L 20.160156 -26.835938 C 20.160156 -27.128906 19.964844 -27.359375 19.640625 -27.359375 L 16.25 -27.359375 C 15.894531 -27.359375 15.535156 -27.066406 15.46875 -26.707031 L 12.636719 -13.351562 L 11.398438 -26.835938 C 11.398438 -27.128906 11.203125 -27.359375 10.878906 -27.359375 Z M 7.425781 -27.359375 "/></g></g></g><path stroke-linecap="butt" transform="matrix(0.209663, 0, 0, 0.209663, 0.814237, 20.786372)" fill="none" stroke-linejoin="miter" d="M 157.312739 140.994381 C 160.107404 140.994381 168.044253 140.845332 170.391772 130.113817 C 182.036211 75.282485 182.18526 74.220512 182.18526 73.121277 C 182.18526 65.985565 175.813423 65.836516 173.316855 65.836516 L 159.660257 65.836516 L 167.280378 30.56784 L 190.122109 30.56784 C 191.817539 30.56784 193.531601 29.151876 193.829698 27.456446 L 196.792043 12.998711 C 196.792043 11.601379 195.841857 10.502143 194.276845 10.502143 L 157.49905 10.502143 C 154.685753 10.502143 146.767535 10.651192 144.457278 21.233658 C 132.626529 77.164226 132.458849 78.226199 132.458849 79.325434 C 132.458849 86.461146 138.830686 86.610194 141.345884 86.610194 L 155.002482 86.610194 L 148.015819 119.084205 L 126.7391 119.084205 C 125.025039 119.084205 123.478658 120.481538 122.994249 122.195599 C 119.733806 138.199715 119.566126 138.497813 119.566126 138.684124 C 119.566126 140.044195 120.833041 140.994381 122.230374 140.994381 Z M 188.855194 -14.333115 C 187.141133 -14.333115 185.445702 -12.935783 185.128974 -11.221721 L 182.18526 2.565294 C 182.18526 4.465667 183.116815 5.676688 184.681827 5.676688 L 215.590825 5.676688 C 187.43923 138.199715 187.290181 138.497813 187.290181 138.684124 C 187.290181 140.044195 188.557096 140.994381 189.954429 140.994381 L 208.268802 140.994381 C 209.982863 140.994381 211.529245 139.597048 211.976391 137.882987 L 240.127986 5.676688 L 271.036984 5.676688 C 272.732414 5.676688 274.446476 4.316618 274.744573 2.565294 L 277.706919 -11.836548 C 277.706919 -13.23388 276.756732 -14.333115 275.210351 -14.333115 Z M 301.778302 65.035379 C 311.410582 19.985374 311.559631 18.923402 311.559631 17.824167 C 311.559631 10.651192 305.187794 10.502143 302.728488 10.502143 L 259.373914 10.502143 C 257.678484 10.502143 255.964423 11.899476 255.666325 13.613538 C 229.228792 138.199715 229.079743 138.497813 229.079743 138.684124 C 229.079743 140.044195 230.328027 140.994381 231.74399 140.994381 L 250.207412 140.994381 C 251.902843 140.994381 253.467855 139.597048 253.952264 137.882987 L 264.963245 85.69727 L 272.434317 85.69727 C 261.386073 138.199715 261.237025 138.497813 261.237025 138.684124 C 261.237025 140.044195 262.485308 140.994381 263.901272 140.994381 L 282.364694 140.994381 C 284.078755 140.994381 285.625137 139.597048 286.072283 137.882987 C 297.120527 86.163048 297.269576 85.063813 297.269576 84.00184 C 297.269576 76.679817 290.897739 76.679817 288.438433 76.679817 L 288.736531 75.915942 C 291.549827 75.915942 299.617094 75.915942 301.778302 65.035379 Z M 276.793995 30.56784 L 284.227804 30.56784 L 276.644946 65.836516 L 269.173874 65.836516 Z M 329.911266 13.613538 C 303.473732 138.199715 303.324684 138.497813 303.324684 138.684124 C 303.324684 140.044195 304.572967 140.994381 305.988931 140.994381 L 351.337033 140.994381 C 353.051094 140.994381 354.597476 139.597048 355.063253 137.882987 L 357.857919 124.07734 L 357.857919 123.443883 C 357.857919 122.04655 356.907733 120.984577 355.361351 120.984577 L 331.774376 120.984577 L 339.543546 84.150889 L 355.5104 84.150889 C 357.224461 84.150889 358.957154 82.753556 359.422931 81.039495 C 362.534325 65.482525 362.683374 65.333476 362.683374 65.035379 C 362.683374 63.638046 361.584139 62.725122 360.168175 62.725122 L 344.164059 62.725122 L 351.038935 30.56784 L 374.62591 30.56784 C 376.339972 30.56784 378.035402 29.151876 378.389393 27.456446 L 381.444894 12.998711 C 381.444894 11.601379 380.550601 10.502143 378.985588 10.502143 L 333.637486 10.502143 C 331.923425 10.502143 330.209364 11.899476 329.911266 13.613538 Z M 409.913217 10.502143 C 407.099921 10.502143 399.181703 10.651192 396.871446 21.382707 C 372.129343 138.199715 371.980294 138.497813 371.980294 138.684124 C 371.980294 140.044195 373.228578 140.994381 374.644541 140.994381 L 393.107963 140.994381 C 394.822025 140.994381 396.368406 139.597048 396.871446 137.882987 L 405.851637 95.031453 L 413.322709 95.031453 C 404.286624 138.199715 404.137576 138.497813 404.137576 138.684124 C 404.137576 140.044195 405.404491 140.994381 406.801823 140.994381 L 425.265245 140.994381 C 426.979307 140.994381 428.525688 139.597048 428.991466 137.882987 C 454.311133 19.985374 454.478813 18.923402 454.478813 17.824167 C 454.478813 10.651192 448.106976 10.502143 445.629039 10.502143 Z M 419.694546 30.56784 L 427.128355 30.56784 L 417.645125 75.133436 L 410.211315 75.133436 Z M 484.307207 10.502143 C 481.49391 10.502143 473.426643 10.502143 471.116387 21.382707 C 446.374284 138.199715 446.225235 138.497813 446.225235 138.684124 C 446.225235 140.044195 447.473519 140.994381 448.889482 140.994381 L 467.352904 140.994381 C 469.066966 140.994381 470.613347 139.597048 471.116387 137.882987 L 493.939487 30.56784 L 501.373296 30.56784 C 478.550196 138.348764 478.382516 138.497813 478.382516 138.833173 C 478.382516 140.249137 479.500383 141.14343 480.897715 141.14343 L 499.361137 141.14343 C 501.075199 141.14343 502.770629 139.746097 503.236406 138.050667 L 526.096768 30.56784 L 533.679627 30.56784 C 510.856527 138.199715 510.707478 138.497813 510.707478 138.684124 C 510.707478 140.044195 511.955762 140.994381 513.353095 140.994381 L 531.667468 140.994381 C 533.381529 140.994381 534.927911 139.597048 535.393688 137.882987 C 560.266209 19.985374 560.415258 18.923402 560.415258 17.824167 C 560.415258 10.502143 553.894372 10.502143 551.397805 10.502143 L 528.723754 10.502143 C 517.824559 10.502143 516.129129 18.271313 515.663351 21.084609 L 514.918107 21.084609 C 515.067156 19.985374 515.216205 18.737091 515.216205 17.526069 C 515.216205 14.246995 513.818872 10.502143 506.198752 10.502143 Z M 603.602152 12.998711 C 603.602152 11.601379 602.651966 10.502143 601.086953 10.502143 L 582.623531 10.502143 C 580.90947 10.502143 579.21404 11.899476 578.897311 13.613538 L 546.59098 166.481728 C 546.59098 167.897692 547.354855 168.959665 548.901237 168.959665 L 602.651966 168.959665 C 604.347396 168.959665 606.061457 167.543701 606.396817 165.848271 L 609.806309 150.477612 L 609.806309 149.844154 C 609.806309 148.465453 608.874754 147.366218 607.309741 147.366218 L 575.152459 147.366218 Z M 624.413093 10.502143 C 622.699031 10.502143 620.98497 11.899476 620.686872 13.613538 C 594.249339 138.199715 594.10029 138.497813 594.10029 138.684124 C 594.10029 140.044195 595.348574 140.994381 596.764538 140.994381 L 615.227959 140.994381 C 616.942021 140.994381 618.488402 139.597048 618.991442 137.882987 L 645.373082 12.998711 C 645.373082 11.601379 644.422896 10.502143 642.876515 10.502143 Z M 637.436233 -14.333115 C 635.740803 -14.333115 634.026741 -12.935783 633.728644 -11.221721 L 630.766298 2.565294 C 630.766298 4.465667 631.716485 5.676688 633.262866 5.676688 L 664.171864 5.676688 C 636.0389 138.199715 635.889851 138.497813 635.889851 138.684124 C 635.889851 140.044195 637.138135 140.994381 638.535468 140.994381 L 656.868472 140.994381 C 658.563902 140.994381 660.128915 139.597048 660.576061 137.882987 L 688.709025 5.676688 L 719.618023 5.676688 C 721.332084 5.676688 723.046146 4.316618 723.344243 2.565294 L 726.306589 -11.836548 C 726.306589 -13.23388 725.356402 -14.333115 723.79139 -14.333115 Z M 734.671953 86.610194 C 736.386015 86.610194 738.118707 85.250124 738.435436 83.4988 L 741.37915 69.096959 C 741.37915 67.699626 740.428964 66.600391 738.882582 66.600391 L 695.993786 66.600391 C 694.279725 66.600391 692.584294 67.997724 692.267566 69.693154 L 689.323851 84.150889 C 689.323851 85.548222 690.255407 86.610194 691.820419 86.610194 Z M 817.151841 64.085192 C 826.486023 19.985374 826.635072 18.923402 826.635072 17.824167 C 826.635072 10.502143 820.114186 10.502143 817.63625 10.502143 L 774.151258 10.502143 C 772.437197 10.502143 770.723135 11.899476 770.425038 13.613538 C 743.987504 138.199715 743.838455 138.497813 743.838455 138.684124 C 743.838455 140.044195 745.086739 140.994381 746.502703 140.994381 L 790.006326 140.994381 C 792.763729 140.994381 800.849627 140.994381 803.197146 130.113817 C 812.680377 85.250124 812.829425 84.00184 812.829425 82.902605 C 812.829425 75.766893 806.606637 75.766893 804.11007 75.766893 L 804.296381 74.965756 C 807.072415 74.965756 814.841584 74.965756 817.151841 64.085192 Z M 779.721958 85.69727 L 787.193029 85.69727 L 779.721958 120.984577 L 772.288148 120.984577 Z M 791.552707 30.56784 L 798.986517 30.56784 L 791.403658 65.836516 L 783.932587 65.836516 Z M 869.672917 12.998711 C 869.672917 11.601379 868.722731 10.502143 867.17635 10.502143 L 848.694297 10.502143 C 846.998866 10.502143 845.284805 11.899476 844.986707 13.613538 L 812.680377 166.481728 C 812.680377 167.897692 813.425621 168.959665 814.990633 168.959665 L 868.722731 168.959665 C 870.436792 168.959665 872.132223 167.543701 872.486214 165.848271 L 875.895705 150.477612 L 875.895705 149.844154 C 875.895705 148.465453 874.945519 147.366218 873.399138 147.366218 L 841.223225 147.366218 Z M 897.917668 140.994381 C 900.730964 140.994381 908.649182 140.845332 910.996701 130.113817 C 922.64114 75.282485 922.790189 74.220512 922.790189 73.121277 C 922.790189 65.985565 916.418352 65.836516 913.921784 65.836516 L 900.265186 65.836516 L 907.885307 30.56784 L 930.727038 30.56784 C 932.422468 30.56784 934.13653 29.151876 934.434627 27.456446 L 937.396972 12.998711 C 937.396972 11.601379 936.446786 10.502143 934.900405 10.502143 L 898.103979 10.502143 C 895.309313 10.502143 887.372464 10.651192 885.062207 21.233658 C 873.231458 77.164226 873.082409 78.226199 873.082409 79.325434 C 873.082409 86.461146 879.454246 86.610194 881.950813 86.610194 L 895.607411 86.610194 L 888.620748 119.084205 L 867.344029 119.084205 C 865.648599 119.084205 864.083587 120.481538 863.599178 122.195599 C 860.338735 138.199715 860.189686 138.497813 860.189686 138.684124 C 860.189686 140.044195 861.43797 140.994381 862.835303 140.994381 Z M 984.906282 86.610194 C 986.620343 86.610194 988.353036 85.250124 988.669765 83.4988 L 991.613479 69.096959 C 991.613479 67.699626 990.681924 66.600391 989.116911 66.600391 L 946.228115 66.600391 C 944.514053 66.600391 942.818623 67.997724 942.501894 69.693154 L 939.55818 84.150889 C 939.55818 85.548222 940.508366 86.610194 942.054748 86.610194 Z M 1018.963936 21.382707 C 995.488748 131.362101 995.488748 132.610385 995.488748 133.523309 C 995.488748 140.994381 1002.009634 140.994381 1004.506201 140.994381 L 1045.960403 140.994381 C 1047.674464 140.994381 1049.220846 139.597048 1049.705254 137.882987 L 1052.481288 124.07734 L 1052.481288 123.443883 C 1052.481288 122.04655 1051.568364 120.984577 1050.021983 120.984577 L 1022.522477 120.984577 L 1041.787036 30.56784 L 1067.72153 30.56784 C 1069.435591 30.56784 1071.149652 29.151876 1071.44775 27.456446 L 1074.559144 12.998711 C 1074.559144 11.601379 1073.608958 10.502143 1072.043945 10.502143 L 1032.154756 10.502143 C 1029.34146 10.502143 1021.274193 10.502143 1018.963936 21.382707 Z M 1089.016879 21.382707 C 1065.541691 131.362101 1065.541691 132.610385 1065.541691 133.523309 C 1065.541691 140.845332 1071.913528 140.994381 1074.410095 140.994381 L 1109.939606 140.994381 C 1112.752903 140.994381 1120.671121 140.845332 1123.037271 130.113817 C 1146.307517 19.985374 1146.475197 18.923402 1146.475197 17.824167 C 1146.475197 10.651192 1140.10336 10.502143 1137.625424 10.502143 L 1101.872339 10.502143 C 1098.947256 10.502143 1091.327136 10.837503 1089.016879 21.382707 Z M 1100.009229 120.984577 L 1092.57542 120.984577 L 1111.839979 30.56784 L 1119.273788 30.56784 Z M 1168.534422 10.502143 C 1166.82036 10.502143 1165.106299 11.899476 1164.808201 13.613538 C 1138.370668 138.199715 1138.221619 138.497813 1138.221619 138.684124 C 1138.221619 140.044195 1139.469903 140.994381 1140.885867 140.994381 L 1157.33713 140.994381 C 1159.051191 140.994381 1160.597572 139.597048 1161.06335 137.882987 L 1173.639344 78.878287 C 1180.476958 138.199715 1180.327909 138.497813 1180.327909 138.684124 C 1180.327909 140.044195 1181.576193 140.994381 1182.973526 140.994381 L 1199.126691 140.994381 C 1200.840752 140.994381 1202.387134 139.597048 1202.852911 137.882987 L 1229.253183 12.998711 C 1229.253183 11.601379 1228.340259 10.502143 1226.775246 10.502143 L 1210.622081 10.502143 C 1208.908019 10.502143 1207.212589 11.899476 1206.914491 13.613538 L 1193.36968 77.331906 L 1187.482252 12.998711 C 1187.482252 11.601379 1186.532066 10.502143 1184.985685 10.502143 Z M 1250.082754 10.502143 C 1248.368693 10.502143 1246.654632 11.899476 1246.356534 13.613538 C 1219.919001 138.199715 1219.769952 138.497813 1219.769952 138.684124 C 1219.769952 140.044195 1221.018236 140.994381 1222.434199 140.994381 L 1238.885462 140.994381 C 1240.599524 140.994381 1242.145905 139.597048 1242.611683 137.882987 L 1255.187676 78.878287 C 1262.025291 138.199715 1261.876242 138.497813 1261.876242 138.684124 C 1261.876242 140.044195 1263.124526 140.994381 1264.521858 140.994381 L 1280.675024 140.994381 C 1282.389085 140.994381 1283.935466 139.597048 1284.401244 137.882987 L 1310.782884 12.998711 C 1310.782884 11.601379 1309.888591 10.502143 1308.323579 10.502143 L 1292.170413 10.502143 C 1290.456352 10.502143 1288.760922 11.899476 1288.462824 13.613538 L 1274.918013 77.331906 L 1269.030585 12.998711 C 1269.030585 11.601379 1268.080399 10.502143 1266.534017 10.502143 Z M 1327.904867 13.613538 C 1301.467333 138.199715 1301.318284 138.497813 1301.318284 138.684124 C 1301.318284 140.044195 1302.566568 140.994381 1303.982532 140.994381 L 1349.330634 140.994381 C 1351.044695 140.994381 1352.591077 139.597048 1353.056854 137.882987 L 1355.85152 124.07734 L 1355.85152 123.443883 C 1355.85152 122.04655 1354.901333 120.984577 1353.354952 120.984577 L 1329.767977 120.984577 L 1337.537146 84.150889 L 1353.504001 84.150889 C 1355.218062 84.150889 1356.950755 82.753556 1357.416532 81.039495 C 1360.527926 65.482525 1360.676975 65.333476 1360.676975 65.035379 C 1360.676975 63.638046 1359.57774 62.725122 1358.161776 62.725122 L 1342.15766 62.725122 L 1349.032536 30.56784 L 1372.619511 30.56784 C 1374.333573 30.56784 1376.029003 29.151876 1376.364363 27.456446 L 1379.438494 12.998711 C 1379.438494 11.601379 1378.544202 10.502143 1376.979189 10.502143 L 1331.631087 10.502143 C 1329.917026 10.502143 1328.202964 11.899476 1327.904867 13.613538 Z M 1394.846416 21.382707 C 1371.371227 131.362101 1371.371227 132.610385 1371.371227 133.523309 C 1371.371227 140.994381 1377.910744 140.994381 1380.407312 140.994381 L 1421.861513 140.994381 C 1423.556944 140.994381 1425.121956 139.597048 1425.606365 137.882987 L 1428.382399 124.07734 L 1428.382399 123.443883 C 1428.382399 122.04655 1427.469475 120.984577 1425.923094 120.984577 L 1398.423587 120.984577 L 1417.688147 30.56784 L 1443.62264 30.56784 C 1445.336702 30.56784 1447.032132 29.151876 1447.348861 27.456446 L 1450.460255 12.998711 C 1450.460255 11.601379 1449.510068 10.502143 1447.945056 10.502143 L 1408.055867 10.502143 C 1405.242571 10.502143 1397.175303 10.502143 1394.846416 21.382707 Z M 1441.59185 -14.333115 C 1439.877789 -14.333115 1438.163727 -12.935783 1437.86563 -11.221721 L 1434.903285 2.565294 C 1434.903285 4.465667 1435.853471 5.676688 1437.418483 5.676688 L 1468.327481 5.676688 C 1440.175886 138.199715 1440.026838 138.497813 1440.026838 138.684124 C 1440.026838 140.044195 1441.275121 140.994381 1442.691085 140.994381 L 1461.005458 140.994381 C 1462.700889 140.994381 1464.265901 139.597048 1464.713048 137.882987 L 1492.864642 5.676688 L 1523.77364 5.676688 C 1525.469071 5.676688 1527.183132 4.316618 1527.48123 2.565294 L 1530.443575 -11.836548 C 1530.443575 -13.23388 1529.493389 -14.333115 1527.947007 -14.333115 Z M 1512.110571 10.502143 C 1510.41514 10.502143 1508.701079 11.899476 1508.402981 13.613538 C 1481.965448 138.199715 1481.816399 138.497813 1481.816399 138.684124 C 1481.816399 140.044195 1483.064683 140.994381 1484.462016 140.994381 L 1502.944069 140.994381 C 1504.639499 140.994381 1506.204511 139.597048 1506.68892 137.882987 L 1533.089191 12.998711 C 1533.089191 11.601379 1532.139005 10.502143 1530.592624 10.502143 Z M 1548.478481 21.382707 C 1525.003293 131.362101 1525.003293 132.610385 1525.003293 133.523309 C 1525.003293 140.845332 1531.37513 140.994381 1533.871698 140.994381 L 1569.401209 140.994381 C 1572.214505 140.994381 1580.151355 140.845332 1582.498873 130.113817 C 1605.787751 19.985374 1605.936799 18.923402 1605.936799 17.824167 C 1605.936799 10.651192 1599.564963 10.502143 1597.087026 10.502143 L 1561.333942 10.502143 C 1558.408859 10.502143 1550.788738 10.837503 1548.478481 21.382707 Z M 1559.470831 120.984577 L 1552.037022 120.984577 L 1571.301581 30.56784 L 1578.735391 30.56784 Z M 1627.996024 10.502143 C 1626.281963 10.502143 1624.586532 11.899476 1624.269804 13.613538 C 1597.83227 138.199715 1597.683221 138.497813 1597.683221 138.684124 C 1597.683221 140.044195 1598.931505 140.994381 1600.347469 140.994381 L 1616.798732 140.994381 C 1618.512793 140.994381 1620.059175 139.597048 1620.524952 137.882987 L 1633.119577 78.878287 C 1639.93856 138.199715 1639.789511 138.497813 1639.789511 138.684124 C 1639.789511 140.044195 1641.037795 140.994381 1642.435128 140.994381 L 1658.588293 140.994381 C 1660.302355 140.994381 1661.848736 139.597048 1662.314514 137.882987 L 1688.714785 12.998711 C 1688.714785 11.601379 1687.801861 10.502143 1686.236848 10.502143 L 1670.083683 10.502143 C 1668.388253 10.502143 1666.674191 11.899476 1666.376094 13.613538 L 1652.831283 77.331906 L 1646.962486 12.998711 C 1646.962486 11.601379 1646.0123 10.502143 1644.447287 10.502143 Z M 1627.996024 10.502143 " stroke="#79ffa0" stroke-width="2.912639" stroke-opacity="1" stroke-miterlimit="4"/></svg>