<svg xmlns="http://www.w3.org/2000/svg" xmlns:xlink="http://www.w3.org/1999/xlink" width="1480" zoomAndPan="magnify" viewBox="0 0 1110 239.999995" height="320" preserveAspectRatio="xMidYMid meet" version="1.0"><defs><g/></defs><g fill="#9d3be1" fill-opacity="1"><g transform="translate(76.422349, 161.014928)"><g><path d="M 26.609375 0 C 28.34375 0 33.257812 -0.0976562 34.707031 -6.75 C 41.9375 -40.777344 42.03125 -41.453125 42.03125 -42.128906 C 42.03125 -46.5625 38.078125 -46.660156 36.539062 -46.660156 L 28.054688 -46.660156 L 32.777344 -68.542969 L 46.949219 -68.542969 C 48.007812 -68.542969 49.070312 -69.410156 49.261719 -70.472656 L 51.09375 -79.4375 C 51.09375 -80.304688 50.515625 -80.980469 49.550781 -80.980469 L 26.703125 -80.980469 C 24.96875 -80.980469 20.050781 -80.882812 18.605469 -74.328125 C 11.28125 -39.621094 11.183594 -38.949219 11.183594 -38.273438 C 11.183594 -33.839844 15.136719 -33.742188 16.679688 -33.742188 L 25.160156 -33.742188 L 20.824219 -13.59375 L 7.617188 -13.59375 C 6.554688 -13.59375 5.589844 -12.726562 5.300781 -11.664062 C 3.277344 -1.734375 3.179688 -1.542969 3.179688 -1.445312 C 3.179688 -0.578125 3.953125 0 4.820312 0 Z M 26.609375 0 "/></g></g></g><g fill="#9d3be1" fill-opacity="1"><g transform="translate(118.45179, 161.014928)"><g><path d="M 4.144531 -96.40625 C 3.085938 -96.40625 2.023438 -95.535156 1.832031 -94.476562 L 0 -85.894531 C 0 -84.738281 0.578125 -83.96875 1.542969 -83.96875 L 20.726562 -83.96875 C 3.277344 -1.734375 3.179688 -1.542969 3.179688 -1.445312 C 3.179688 -0.578125 3.953125 0 4.820312 0 L 16.195312 0 C 17.257812 0 18.21875 -0.867188 18.507812 -1.929688 L 35.957031 -83.96875 L 55.144531 -83.96875 C 56.203125 -83.96875 57.265625 -84.835938 57.457031 -85.894531 L 59.289062 -94.863281 C 59.289062 -95.730469 58.710938 -96.40625 57.746094 -96.40625 Z M 4.144531 -96.40625 "/></g></g></g><g fill="#9d3be1" fill-opacity="1"><g transform="translate(144.382954, 161.014928)"><g><path d="M 48.296875 -47.140625 C 54.277344 -75.097656 54.371094 -75.773438 54.371094 -76.449219 C 54.371094 -80.882812 50.417969 -80.980469 48.878906 -80.980469 L 21.980469 -80.980469 C 20.917969 -80.980469 19.859375 -80.113281 19.667969 -79.050781 C 3.277344 -1.734375 3.179688 -1.542969 3.179688 -1.445312 C 3.179688 -0.578125 3.953125 0 4.820312 0 L 16.292969 0 C 17.351562 0 18.316406 -0.867188 18.605469 -1.929688 L 25.449219 -34.320312 L 30.078125 -34.320312 C 23.234375 -1.734375 23.136719 -1.542969 23.136719 -1.445312 C 23.136719 -0.578125 23.910156 0 24.777344 0 L 36.246094 0 C 37.308594 0 38.273438 -0.867188 38.5625 -1.929688 C 45.40625 -34.03125 45.503906 -34.707031 45.503906 -35.378906 C 45.503906 -39.910156 41.550781 -39.910156 40.007812 -39.910156 L 40.199219 -40.394531 C 41.9375 -40.394531 46.949219 -40.394531 48.296875 -47.140625 Z M 32.777344 -68.542969 L 37.40625 -68.542969 L 32.679688 -46.660156 L 28.054688 -46.660156 Z M 32.777344 -68.542969 "/></g></g></g><g fill="#9d3be1" fill-opacity="1"><g transform="translate(190.461066, 161.014928)"><g><path d="M 19.667969 -79.050781 C 3.277344 -1.734375 3.179688 -1.542969 3.179688 -1.445312 C 3.179688 -0.578125 3.953125 0 4.820312 0 L 32.96875 0 C 34.03125 0 34.996094 -0.867188 35.285156 -1.929688 L 37.019531 -10.507812 L 37.019531 -10.894531 C 37.019531 -11.761719 36.441406 -12.4375 35.476562 -12.4375 L 20.824219 -12.4375 L 25.644531 -35.285156 L 35.574219 -35.285156 C 36.632812 -35.285156 37.695312 -36.152344 37.984375 -37.210938 C 39.910156 -46.851562 40.007812 -46.949219 40.007812 -47.140625 C 40.007812 -48.007812 39.332031 -48.585938 38.464844 -48.585938 L 28.535156 -48.585938 L 32.777344 -68.542969 L 47.429688 -68.542969 C 48.492188 -68.542969 49.550781 -69.410156 49.746094 -70.472656 L 51.671875 -79.4375 C 51.671875 -80.304688 51.09375 -80.980469 50.128906 -80.980469 L 21.980469 -80.980469 C 20.917969 -80.980469 19.859375 -80.113281 19.667969 -79.050781 Z M 19.667969 -79.050781 "/></g></g></g><g fill="#9d3be1" fill-opacity="1"><g transform="translate(233.068898, 161.014928)"><g><path d="M 26.703125 -80.980469 C 24.96875 -80.980469 20.050781 -80.882812 18.605469 -74.230469 C 3.277344 -1.734375 3.179688 -1.542969 3.179688 -1.445312 C 3.179688 -0.578125 3.953125 0 4.820312 0 L 16.292969 0 C 17.351562 0 18.316406 -0.867188 18.605469 -1.929688 L 24.199219 -28.535156 L 28.824219 -28.535156 C 23.234375 -1.734375 23.136719 -1.542969 23.136719 -1.445312 C 23.136719 -0.578125 23.910156 0 24.777344 0 L 36.246094 0 C 37.308594 0 38.273438 -0.867188 38.5625 -1.929688 C 54.277344 -75.097656 54.371094 -75.773438 54.371094 -76.449219 C 54.371094 -80.882812 50.417969 -80.980469 48.878906 -80.980469 Z M 32.777344 -68.542969 L 37.40625 -68.542969 L 31.523438 -40.875 L 26.898438 -40.875 Z M 32.777344 -68.542969 "/></g></g></g><g fill="#9d3be1" fill-opacity="1"><g transform="translate(279.147011, 161.014928)"><g><path d="M 26.800781 -80.980469 C 25.066406 -80.980469 20.050781 -80.980469 18.605469 -74.230469 C 3.277344 -1.734375 3.179688 -1.542969 3.179688 -1.445312 C 3.179688 -0.578125 3.953125 0 4.820312 0 L 16.292969 0 C 17.351562 0 18.316406 -0.867188 18.605469 -1.929688 L 32.777344 -68.542969 L 37.40625 -68.542969 C 23.234375 -1.640625 23.136719 -1.542969 23.136719 -1.351562 C 23.136719 -0.480469 23.8125 0.0976562 24.679688 0.0976562 L 36.152344 0.0976562 C 37.210938 0.0976562 38.273438 -0.769531 38.5625 -1.832031 L 52.734375 -68.542969 L 57.457031 -68.542969 C 43.285156 -1.734375 43.1875 -1.542969 43.1875 -1.445312 C 43.1875 -0.578125 43.960938 0 44.828125 0 L 56.203125 0 C 57.265625 0 58.226562 -0.867188 58.515625 -1.929688 C 73.941406 -75.097656 74.039062 -75.773438 74.039062 -76.449219 C 74.039062 -80.980469 69.988281 -80.980469 68.445312 -80.980469 L 54.371094 -80.980469 C 47.625 -80.980469 46.5625 -76.160156 46.273438 -74.425781 L 45.792969 -74.425781 C 45.886719 -75.097656 45.984375 -75.871094 45.984375 -76.640625 C 45.984375 -78.664062 45.117188 -80.980469 40.394531 -80.980469 Z M 26.800781 -80.980469 "/></g></g></g><g fill="#9d3be1" fill-opacity="1"><g transform="translate(344.986492, 161.014928)"><g><path d="M 34.996094 -79.4375 C 34.996094 -80.304688 34.417969 -80.980469 33.453125 -80.980469 L 21.980469 -80.980469 C 20.917969 -80.980469 19.859375 -80.113281 19.667969 -79.050781 L -0.386719 15.808594 C -0.386719 16.679688 0.0976562 17.351562 1.058594 17.351562 L 34.417969 17.351562 C 35.476562 17.351562 36.539062 16.484375 36.730469 15.425781 L 38.851562 5.878906 L 38.851562 5.496094 C 38.851562 4.628906 38.273438 3.953125 37.308594 3.953125 L 17.351562 3.953125 Z M 34.996094 -79.4375 "/></g></g></g><g fill="#9d3be1" fill-opacity="1"><g transform="translate(370.917651, 161.014928)"><g><path d="M 21.980469 -80.980469 C 20.917969 -80.980469 19.859375 -80.113281 19.667969 -79.050781 C 3.277344 -1.734375 3.179688 -1.542969 3.179688 -1.445312 C 3.179688 -0.578125 3.953125 0 4.820312 0 L 16.292969 0 C 17.351562 0 18.316406 -0.867188 18.605469 -1.929688 L 34.996094 -79.4375 C 34.996094 -80.304688 34.417969 -80.980469 33.453125 -80.980469 Z M 21.980469 -80.980469 "/></g></g></g><g fill="#9d3be1" fill-opacity="1"><g transform="translate(396.84881, 161.014928)"><g><path d="M 4.144531 -96.40625 C 3.085938 -96.40625 2.023438 -95.535156 1.832031 -94.476562 L 0 -85.894531 C 0 -84.738281 0.578125 -83.96875 1.542969 -83.96875 L 20.726562 -83.96875 C 3.277344 -1.734375 3.179688 -1.542969 3.179688 -1.445312 C 3.179688 -0.578125 3.953125 0 4.820312 0 L 16.195312 0 C 17.257812 0 18.21875 -0.867188 18.507812 -1.929688 L 35.957031 -83.96875 L 55.144531 -83.96875 C 56.203125 -83.96875 57.265625 -84.835938 57.457031 -85.894531 L 59.289062 -94.863281 C 59.289062 -95.730469 58.710938 -96.40625 57.746094 -96.40625 Z M 4.144531 -96.40625 "/></g></g></g><g fill="#9d3be1" fill-opacity="1"><g transform="translate(422.779969, 161.014928)"><g><path d="M 38.5625 -33.742188 C 39.621094 -33.742188 40.683594 -34.609375 40.875 -35.667969 L 42.707031 -44.636719 C 42.707031 -45.503906 42.128906 -46.175781 41.164062 -46.175781 L 14.558594 -46.175781 C 13.496094 -46.175781 12.4375 -45.308594 12.242188 -44.25 L 10.410156 -35.285156 C 10.410156 -34.417969 10.988281 -33.742188 11.953125 -33.742188 Z M 38.5625 -33.742188 "/></g></g></g><g fill="#9d3be1" fill-opacity="1"><g transform="translate(463.845425, 161.014928)"><g><path d="M 48.683594 -47.71875 C 54.46875 -75.097656 54.566406 -75.773438 54.566406 -76.449219 C 54.566406 -80.980469 50.515625 -80.980469 48.972656 -80.980469 L 21.980469 -80.980469 C 20.917969 -80.980469 19.859375 -80.113281 19.667969 -79.050781 C 3.277344 -1.734375 3.179688 -1.542969 3.179688 -1.445312 C 3.179688 -0.578125 3.953125 0 4.820312 0 L 31.8125 0 C 33.546875 0 38.5625 0 40.007812 -6.75 C 45.886719 -34.609375 45.984375 -35.378906 45.984375 -36.054688 C 45.984375 -40.488281 42.128906 -40.488281 40.585938 -40.488281 L 40.683594 -40.972656 C 42.417969 -40.972656 47.238281 -40.972656 48.683594 -47.71875 Z M 25.449219 -34.320312 L 30.078125 -34.320312 L 25.449219 -12.4375 L 20.824219 -12.4375 Z M 32.777344 -68.542969 L 37.40625 -68.542969 L 32.679688 -46.660156 L 28.054688 -46.660156 Z M 32.777344 -68.542969 "/></g></g></g><g fill="#9d3be1" fill-opacity="1"><g transform="translate(510.116338, 161.014928)"><g><path d="M 34.996094 -79.4375 C 34.996094 -80.304688 34.417969 -80.980469 33.453125 -80.980469 L 21.980469 -80.980469 C 20.917969 -80.980469 19.859375 -80.113281 19.667969 -79.050781 L -0.386719 15.808594 C -0.386719 16.679688 0.0976562 17.351562 1.058594 17.351562 L 34.417969 17.351562 C 35.476562 17.351562 36.539062 16.484375 36.730469 15.425781 L 38.851562 5.878906 L 38.851562 5.496094 C 38.851562 4.628906 38.273438 3.953125 37.308594 3.953125 L 17.351562 3.953125 Z M 34.996094 -79.4375 "/></g></g></g><g fill="#9d3be1" fill-opacity="1"><g transform="translate(536.047498, 161.014928)"><g><path d="M 26.609375 0 C 28.34375 0 33.257812 -0.0976562 34.707031 -6.75 C 41.9375 -40.777344 42.03125 -41.453125 42.03125 -42.128906 C 42.03125 -46.5625 38.078125 -46.660156 36.539062 -46.660156 L 28.054688 -46.660156 L 32.777344 -68.542969 L 46.949219 -68.542969 C 48.007812 -68.542969 49.070312 -69.410156 49.261719 -70.472656 L 51.09375 -79.4375 C 51.09375 -80.304688 50.515625 -80.980469 49.550781 -80.980469 L 26.703125 -80.980469 C 24.96875 -80.980469 20.050781 -80.882812 18.605469 -74.328125 C 11.28125 -39.621094 11.183594 -38.949219 11.183594 -38.273438 C 11.183594 -33.839844 15.136719 -33.742188 16.679688 -33.742188 L 25.160156 -33.742188 L 20.824219 -13.59375 L 7.617188 -13.59375 C 6.554688 -13.59375 5.589844 -12.726562 5.300781 -11.664062 C 3.277344 -1.734375 3.179688 -1.542969 3.179688 -1.445312 C 3.179688 -0.578125 3.953125 0 4.820312 0 Z M 26.609375 0 "/></g></g></g><g fill="#9d3be1" fill-opacity="1"><g transform="translate(578.076924, 161.014928)"><g><path d="M 38.5625 -33.742188 C 39.621094 -33.742188 40.683594 -34.609375 40.875 -35.667969 L 42.707031 -44.636719 C 42.707031 -45.503906 42.128906 -46.175781 41.164062 -46.175781 L 14.558594 -46.175781 C 13.496094 -46.175781 12.4375 -45.308594 12.242188 -44.25 L 10.410156 -35.285156 C 10.410156 -34.417969 10.988281 -33.742188 11.953125 -33.742188 Z M 38.5625 -33.742188 "/></g></g></g><g fill="#9d3be1" fill-opacity="1"><g transform="translate(619.142379, 161.014928)"><g><path d="M 18.605469 -74.230469 C 4.050781 -5.976562 4.050781 -5.207031 4.050781 -4.628906 C 4.050781 0 8.097656 0 9.640625 0 L 35.378906 0 C 36.441406 0 37.40625 -0.867188 37.695312 -1.929688 L 39.429688 -10.507812 L 39.429688 -10.894531 C 39.429688 -11.761719 38.851562 -12.4375 37.886719 -12.4375 L 20.824219 -12.4375 L 32.777344 -68.542969 L 48.878906 -68.542969 C 49.9375 -68.542969 50.996094 -69.410156 51.191406 -70.472656 L 53.117188 -79.4375 C 53.117188 -80.304688 52.539062 -80.980469 51.578125 -80.980469 L 26.800781 -80.980469 C 25.066406 -80.980469 20.050781 -80.980469 18.605469 -74.230469 Z M 18.605469 -74.230469 "/></g></g></g><g fill="#9d3be1" fill-opacity="1"><g transform="translate(662.617781, 161.014928)"><g><path d="M 18.605469 -74.230469 C 4.050781 -5.976562 4.050781 -5.207031 4.050781 -4.628906 C 4.050781 -0.0976562 8 0 9.542969 0 L 31.621094 0 C 33.355469 0 38.273438 -0.0976562 39.71875 -6.75 C 54.179688 -75.097656 54.277344 -75.773438 54.277344 -76.449219 C 54.277344 -80.882812 50.324219 -80.980469 48.78125 -80.980469 L 26.609375 -80.980469 C 24.777344 -80.980469 20.050781 -80.785156 18.605469 -74.230469 Z M 25.449219 -12.4375 L 20.824219 -12.4375 L 32.777344 -68.542969 L 37.40625 -68.542969 Z M 25.449219 -12.4375 "/></g></g></g><g fill="#9d3be1" fill-opacity="1"><g transform="translate(708.599493, 161.014928)"><g><path d="M 21.980469 -80.980469 C 20.917969 -80.980469 19.859375 -80.113281 19.667969 -79.050781 C 3.277344 -1.734375 3.179688 -1.542969 3.179688 -1.445312 C 3.179688 -0.578125 3.953125 0 4.820312 0 L 15.039062 0 C 16.097656 0 17.0625 -0.867188 17.351562 -1.929688 L 25.160156 -38.5625 C 29.402344 -1.734375 29.308594 -1.542969 29.308594 -1.445312 C 29.308594 -0.578125 30.078125 0 30.945312 0 L 40.972656 0 C 42.03125 0 42.996094 -0.867188 43.285156 -1.929688 L 59.675781 -79.4375 C 59.675781 -80.304688 59.097656 -80.980469 58.132812 -80.980469 L 48.105469 -80.980469 C 47.046875 -80.980469 45.984375 -80.113281 45.792969 -79.050781 L 37.40625 -39.527344 L 33.742188 -79.4375 C 33.742188 -80.304688 33.164062 -80.980469 32.199219 -80.980469 Z M 21.980469 -80.980469 "/></g></g></g><g fill="#9d3be1" fill-opacity="1"><g transform="translate(759.208258, 161.014928)"><g><path d="M 21.980469 -80.980469 C 20.917969 -80.980469 19.859375 -80.113281 19.667969 -79.050781 C 3.277344 -1.734375 3.179688 -1.542969 3.179688 -1.445312 C 3.179688 -0.578125 3.953125 0 4.820312 0 L 15.039062 0 C 16.097656 0 17.0625 -0.867188 17.351562 -1.929688 L 25.160156 -38.5625 C 29.402344 -1.734375 29.308594 -1.542969 29.308594 -1.445312 C 29.308594 -0.578125 30.078125 0 30.945312 0 L 40.972656 0 C 42.03125 0 42.996094 -0.867188 43.285156 -1.929688 L 59.675781 -79.4375 C 59.675781 -80.304688 59.097656 -80.980469 58.132812 -80.980469 L 48.105469 -80.980469 C 47.046875 -80.980469 45.984375 -80.113281 45.792969 -79.050781 L 37.40625 -39.527344 L 33.742188 -79.4375 C 33.742188 -80.304688 33.164062 -80.980469 32.199219 -80.980469 Z M 21.980469 -80.980469 "/></g></g></g><g fill="#9d3be1" fill-opacity="1"><g transform="translate(809.817023, 161.014928)"><g><path d="M 19.667969 -79.050781 C 3.277344 -1.734375 3.179688 -1.542969 3.179688 -1.445312 C 3.179688 -0.578125 3.953125 0 4.820312 0 L 32.96875 0 C 34.03125 0 34.996094 -0.867188 35.285156 -1.929688 L 37.019531 -10.507812 L 37.019531 -10.894531 C 37.019531 -11.761719 36.441406 -12.4375 35.476562 -12.4375 L 20.824219 -12.4375 L 25.644531 -35.285156 L 35.574219 -35.285156 C 36.632812 -35.285156 37.695312 -36.152344 37.984375 -37.210938 C 39.910156 -46.851562 40.007812 -46.949219 40.007812 -47.140625 C 40.007812 -48.007812 39.332031 -48.585938 38.464844 -48.585938 L 28.535156 -48.585938 L 32.777344 -68.542969 L 47.429688 -68.542969 C 48.492188 -68.542969 49.550781 -69.410156 49.746094 -70.472656 L 51.671875 -79.4375 C 51.671875 -80.304688 51.09375 -80.980469 50.128906 -80.980469 L 21.980469 -80.980469 C 20.917969 -80.980469 19.859375 -80.113281 19.667969 -79.050781 Z M 19.667969 -79.050781 "/></g></g></g><g fill="#9d3be1" fill-opacity="1"><g transform="translate(852.424855, 161.014928)"><g><path d="M 18.605469 -74.230469 C 4.050781 -5.976562 4.050781 -5.207031 4.050781 -4.628906 C 4.050781 0 8.097656 0 9.640625 0 L 35.378906 0 C 36.441406 0 37.40625 -0.867188 37.695312 -1.929688 L 39.429688 -10.507812 L 39.429688 -10.894531 C 39.429688 -11.761719 38.851562 -12.4375 37.886719 -12.4375 L 20.824219 -12.4375 L 32.777344 -68.542969 L 48.878906 -68.542969 C 49.9375 -68.542969 50.996094 -69.410156 51.191406 -70.472656 L 53.117188 -79.4375 C 53.117188 -80.304688 52.539062 -80.980469 51.578125 -80.980469 L 26.800781 -80.980469 C 25.066406 -80.980469 20.050781 -80.980469 18.605469 -74.230469 Z M 18.605469 -74.230469 "/></g></g></g><g fill="#9d3be1" fill-opacity="1"><g transform="translate(895.900257, 161.014928)"><g><path d="M 4.144531 -96.40625 C 3.085938 -96.40625 2.023438 -95.535156 1.832031 -94.476562 L 0 -85.894531 C 0 -84.738281 0.578125 -83.96875 1.542969 -83.96875 L 20.726562 -83.96875 C 3.277344 -1.734375 3.179688 -1.542969 3.179688 -1.445312 C 3.179688 -0.578125 3.953125 0 4.820312 0 L 16.195312 0 C 17.257812 0 18.21875 -0.867188 18.507812 -1.929688 L 35.957031 -83.96875 L 55.144531 -83.96875 C 56.203125 -83.96875 57.265625 -84.835938 57.457031 -85.894531 L 59.289062 -94.863281 C 59.289062 -95.730469 58.710938 -96.40625 57.746094 -96.40625 Z M 4.144531 -96.40625 "/></g></g></g><g fill="#9d3be1" fill-opacity="1"><g transform="translate(921.831454, 161.014928)"><g><path d="M 21.980469 -80.980469 C 20.917969 -80.980469 19.859375 -80.113281 19.667969 -79.050781 C 3.277344 -1.734375 3.179688 -1.542969 3.179688 -1.445312 C 3.179688 -0.578125 3.953125 0 4.820312 0 L 16.292969 0 C 17.351562 0 18.316406 -0.867188 18.605469 -1.929688 L 34.996094 -79.4375 C 34.996094 -80.304688 34.417969 -80.980469 33.453125 -80.980469 Z M 21.980469 -80.980469 "/></g></g></g><g fill="#9d3be1" fill-opacity="1"><g transform="translate(947.762651, 161.014928)"><g><path d="M 18.605469 -74.230469 C 4.050781 -5.976562 4.050781 -5.207031 4.050781 -4.628906 C 4.050781 -0.0976562 8 0 9.542969 0 L 31.621094 0 C 33.355469 0 38.273438 -0.0976562 39.71875 -6.75 C 54.179688 -75.097656 54.277344 -75.773438 54.277344 -76.449219 C 54.277344 -80.882812 50.324219 -80.980469 48.78125 -80.980469 L 26.609375 -80.980469 C 24.777344 -80.980469 20.050781 -80.785156 18.605469 -74.230469 Z M 25.449219 -12.4375 L 20.824219 -12.4375 L 32.777344 -68.542969 L 37.40625 -68.542969 Z M 25.449219 -12.4375 "/></g></g></g><g fill="#9d3be1" fill-opacity="1"><g transform="translate(993.7444, 161.014928)"><g><path d="M 21.980469 -80.980469 C 20.917969 -80.980469 19.859375 -80.113281 19.667969 -79.050781 C 3.277344 -1.734375 3.179688 -1.542969 3.179688 -1.445312 C 3.179688 -0.578125 3.953125 0 4.820312 0 L 15.039062 0 C 16.097656 0 17.0625 -0.867188 17.351562 -1.929688 L 25.160156 -38.5625 C 29.402344 -1.734375 29.308594 -1.542969 29.308594 -1.445312 C 29.308594 -0.578125 30.078125 0 30.945312 0 L 40.972656 0 C 42.03125 0 42.996094 -0.867188 43.285156 -1.929688 L 59.675781 -79.4375 C 59.675781 -80.304688 59.097656 -80.980469 58.132812 -80.980469 L 48.105469 -80.980469 C 47.046875 -80.980469 45.984375 -80.113281 45.792969 -79.050781 L 37.40625 -39.527344 L 33.742188 -79.4375 C 33.742188 -80.304688 33.164062 -80.980469 32.199219 -80.980469 Z M 21.980469 -80.980469 "/></g></g></g><path stroke-linecap="butt" transform="matrix(0.620602, 0, 0, 0.620602, 2.410132, 70.527668)" fill="none" stroke-linejoin="miter" d="M 157.30696 140.997891 C 160.114214 140.997891 168.038726 140.846828 170.392791 130.115062 C 182.037229 75.279199 182.188292 74.215464 182.188292 73.113963 C 182.188292 65.982531 175.81847 65.831468 173.313342 65.831468 L 159.661025 65.831468 L 167.283411 30.564556 L 190.112805 30.564556 C 191.818558 30.564556 193.524311 29.160929 193.832731 27.455176 L 196.784753 13.003484 C 196.784753 11.599857 195.84061 10.498356 194.28592 10.498356 L 157.495789 10.498356 C 154.688535 10.498356 146.764023 10.649419 144.454018 21.236416 C 132.620751 77.17378 132.469688 78.237516 132.469688 79.332722 C 132.469688 86.464154 138.83951 86.615217 141.344638 86.615217 L 154.996955 86.615217 L 148.016586 119.08117 L 126.741883 119.08117 C 125.03613 119.08117 123.48144 120.484797 122.984191 122.19055 C 119.723748 138.190638 119.572685 138.499058 119.572685 138.687887 C 119.572685 140.053748 120.825249 140.997891 122.228876 140.997891 Z M 188.853947 -14.338917 C 187.141899 -14.338917 185.436147 -12.93529 185.134021 -11.229537 L 182.175704 2.573843 C 182.175704 4.468425 183.126142 5.683223 184.680832 5.683223 L 215.585801 5.683223 C 187.45032 138.190638 187.299257 138.499058 187.299257 138.687887 C 187.299257 140.053748 188.545526 140.997891 189.949153 140.997891 L 208.271834 140.997891 C 209.977587 140.997891 211.532277 139.594265 211.985466 137.888512 L 240.127241 5.683223 L 271.03221 5.683223 C 272.744257 5.683223 274.45001 4.317362 274.752136 2.573843 L 277.710453 -11.840083 C 277.710453 -13.237416 276.760015 -14.338917 275.205325 -14.338917 Z M 301.779822 65.038387 C 311.416381 19.983852 311.567444 18.920117 311.567444 17.818616 C 311.567444 10.649419 305.197622 10.498356 302.73026 10.498356 L 259.381477 10.498356 C 257.675725 10.498356 255.969972 11.901983 255.667846 13.607736 C 229.231823 138.190638 229.080761 138.499058 229.080761 138.687887 C 229.080761 140.053748 230.333324 140.997891 231.736951 140.997891 L 250.204401 140.997891 C 251.910154 140.997891 253.464844 139.594265 253.962093 137.888512 L 264.958219 85.702545 L 272.429543 85.702545 C 261.389356 138.190638 261.238293 138.499058 261.238293 138.687887 C 261.238293 140.053748 262.490857 140.997891 263.894484 140.997891 L 282.361934 140.997891 C 284.073981 140.997891 285.628671 139.594265 286.08186 137.888512 C 297.115752 86.162028 297.266815 85.060527 297.266815 83.996792 C 297.266815 76.676532 290.896993 76.676532 288.435925 76.676532 L 288.738051 75.921217 C 291.545305 75.921217 299.62088 75.921217 301.779822 65.038387 Z M 276.791486 30.564556 L 284.225044 30.564556 L 276.640423 65.831468 L 269.1691 65.831468 Z M 329.915303 13.607736 C 303.47928 138.190638 303.328217 138.499058 303.328217 138.687887 C 303.328217 140.053748 304.580781 140.997891 305.984408 140.997891 L 351.341069 140.997891 C 353.046822 140.997891 354.601512 139.594265 355.054701 137.888512 L 357.861955 124.085131 L 357.861955 123.443114 C 357.861955 122.039487 356.917811 120.975752 355.363121 120.975752 L 331.772118 120.975752 L 339.545568 84.147855 L 355.514184 84.147855 C 357.219937 84.147855 358.963456 82.750522 359.416645 81.038475 C 362.526024 65.491576 362.683382 65.340513 362.683382 65.038387 C 362.683382 63.634761 361.581881 62.722088 360.178254 62.722088 L 344.171872 62.722088 L 351.038943 30.564556 L 374.623652 30.564556 C 376.335699 30.564556 378.041452 29.160929 378.381343 27.455176 L 381.452957 13.003484 C 381.452957 11.599857 380.540285 10.498356 378.985595 10.498356 L 333.628934 10.498356 C 331.923181 10.498356 330.217429 11.901983 329.915303 13.607736 Z M 409.909447 10.498356 C 407.102193 10.498356 399.177681 10.649419 396.861382 21.387479 C 372.137407 138.190638 371.986344 138.499058 371.986344 138.687887 C 371.986344 140.053748 373.232613 140.997891 374.63624 140.997891 L 393.109984 140.997891 C 394.815737 140.997891 396.370427 139.594265 396.861382 137.888512 L 405.849629 95.036978 L 413.320953 95.036978 C 404.29494 138.190638 404.143877 138.499058 404.143877 138.687887 C 404.143877 140.053748 405.39644 140.997891 406.800067 140.997891 L 425.267517 140.997891 C 426.97327 140.997891 428.52796 139.594265 428.987443 137.888512 C 454.31567 19.983852 454.473028 18.920117 454.473028 17.818616 C 454.473028 10.649419 448.096911 10.498356 445.635843 10.498356 Z M 419.690775 30.564556 L 427.124333 30.564556 L 417.645131 75.121842 L 410.211573 75.121842 Z M 484.307967 10.498356 C 481.500713 10.498356 473.425138 10.498356 471.108839 21.387479 C 446.384864 138.190638 446.233801 138.499058 446.233801 138.687887 C 446.233801 140.053748 447.48007 140.997891 448.883697 140.997891 L 467.357441 140.997891 C 469.063194 140.997891 470.617884 139.594265 471.108839 137.888512 L 493.938232 30.564556 L 501.37179 30.564556 C 478.542396 138.347995 478.391333 138.499058 478.391333 138.83895 C 478.391333 140.242576 479.492834 141.148954 480.896461 141.148954 L 499.363911 141.148954 C 501.069664 141.148954 502.775417 139.745328 503.2349 138.039575 L 526.102059 30.564556 L 533.68668 30.564556 C 510.857287 138.190638 510.706224 138.499058 510.706224 138.687887 C 510.706224 140.053748 511.952493 140.997891 513.35612 140.997891 L 531.672507 140.997891 C 533.384554 140.997891 534.939244 139.594265 535.392433 137.888512 C 560.273765 19.983852 560.424828 18.920117 560.424828 17.818616 C 560.424828 10.498356 553.897648 10.498356 551.398815 10.498356 L 528.720484 10.498356 C 517.831361 10.498356 516.125608 18.278099 515.672419 21.079059 L 514.91081 21.079059 C 515.061873 19.983852 515.21923 18.731288 515.21923 17.51649 C 515.21923 14.256047 513.815603 10.498356 506.193217 10.498356 Z M 603.59737 13.003484 C 603.59737 11.599857 602.646932 10.498356 601.092243 10.498356 L 582.624793 10.498356 C 580.91904 10.498356 579.206993 11.901983 578.904867 13.607736 L 546.596271 166.483476 C 546.596271 167.887103 547.351586 168.950838 548.906276 168.950838 L 602.646932 168.950838 C 604.352685 168.950838 606.058438 167.547211 606.404624 165.841458 L 609.81613 150.483388 L 609.81613 149.835076 C 609.81613 148.469215 608.865692 147.374008 607.311002 147.374008 L 575.153469 147.374008 Z M 624.406296 10.498356 C 622.700544 10.498356 620.994791 11.901983 620.692665 13.607736 C 594.256642 138.190638 594.10558 138.499058 594.10558 138.687887 C 594.10558 140.053748 595.358143 140.997891 596.76177 140.997891 L 615.22922 140.997891 C 616.934973 140.997891 618.489663 139.594265 618.980618 137.888512 L 645.378874 13.003484 C 645.378874 11.599857 644.428436 10.498356 642.873746 10.498356 Z M 637.441773 -14.338917 C 635.73602 -14.338917 634.030267 -12.93529 633.728141 -11.229537 L 630.769825 2.573843 C 630.769825 4.468425 631.713968 5.683223 633.268658 5.683223 L 664.179921 5.683223 C 636.038146 138.190638 635.887083 138.499058 635.887083 138.687887 C 635.887083 140.053748 637.139647 140.997891 638.543274 140.997891 L 656.859661 140.997891 C 658.565414 140.997891 660.120104 139.594265 660.579587 137.888512 L 688.715068 5.683223 L 719.626331 5.683223 C 721.332084 5.683223 723.037837 4.317362 723.339963 2.573843 L 726.298279 -11.840083 C 726.298279 -13.237416 725.354136 -14.338917 723.799446 -14.338917 Z M 734.675981 86.615217 C 736.381734 86.615217 738.125252 85.249356 738.427378 83.505837 L 741.385695 69.091911 C 741.385695 67.688284 740.435257 66.593077 738.880567 66.593077 L 695.991268 66.593077 C 694.285515 66.593077 692.579762 67.996704 692.271342 69.702457 L 689.313025 84.147855 C 689.313025 85.551482 690.263463 86.615217 691.818153 86.615217 Z M 817.150076 64.087949 C 826.478215 19.983852 826.635573 18.920117 826.635573 17.818616 C 826.635573 10.498356 820.108393 10.498356 817.647325 10.498356 L 774.14748 10.498356 C 772.435433 10.498356 770.72968 11.901983 770.427554 13.607736 C 743.991532 138.190638 743.840469 138.499058 743.840469 138.687887 C 743.840469 140.053748 745.093032 140.997891 746.496659 140.997891 L 789.996505 140.997891 C 792.765993 140.997891 800.841568 140.997891 803.195633 130.115062 C 812.674835 85.249356 812.825898 83.996792 812.825898 82.901585 C 812.825898 75.770154 806.607139 75.770154 804.108305 75.770154 L 804.297134 74.970779 C 807.060328 74.970779 814.840071 74.970779 817.150076 64.087949 Z M 779.717927 85.702545 L 787.189251 85.702545 L 779.717927 120.975752 L 772.28437 120.975752 Z M 791.551194 30.564556 L 798.984752 30.564556 L 791.400131 65.831468 L 783.928808 65.831468 Z M 869.675935 13.003484 C 869.675935 11.599857 868.725497 10.498356 867.170807 10.498356 L 848.703357 10.498356 C 846.997604 10.498356 845.291851 11.901983 844.983431 13.607736 L 812.674835 166.483476 C 812.674835 167.887103 813.43015 168.950838 814.98484 168.950838 L 868.725497 168.950838 C 870.431249 168.950838 872.143297 167.547211 872.483188 165.841458 L 875.894694 150.483388 L 875.894694 149.835076 C 875.894694 148.469215 874.944256 147.374008 873.389566 147.374008 L 841.232033 147.374008 Z M 897.918418 140.997891 C 900.725672 140.997891 908.650185 140.846828 911.004249 130.115062 C 922.648688 75.279199 922.799751 74.215464 922.799751 73.113963 C 922.799751 65.982531 916.429928 65.831468 913.9248 65.831468 L 900.272483 65.831468 L 907.89487 30.564556 L 930.724263 30.564556 C 932.430016 30.564556 934.135769 29.160929 934.444189 27.455176 L 937.402506 13.003484 C 937.402506 11.599857 936.452068 10.498356 934.897378 10.498356 L 898.107247 10.498356 C 895.299993 10.498356 887.375481 10.649419 885.065476 21.236416 C 873.232209 77.17378 873.081146 78.237516 873.081146 79.332722 C 873.081146 86.464154 879.450969 86.615217 881.956096 86.615217 L 895.608414 86.615217 L 888.628045 119.08117 L 867.353341 119.08117 C 865.647588 119.08117 864.092898 120.484797 863.595649 122.19055 C 860.335207 138.190638 860.184144 138.499058 860.184144 138.687887 C 860.184144 140.053748 861.436708 140.997891 862.840335 140.997891 Z M 984.911815 86.615217 C 986.617567 86.615217 988.361086 85.249356 988.663212 83.505837 L 991.621529 69.091911 C 991.621529 67.688284 990.671091 66.593077 989.116401 66.593077 L 946.227102 66.593077 C 944.521349 66.593077 942.815596 67.996704 942.507176 69.702457 L 939.548859 84.147855 C 939.548859 85.551482 940.499297 86.615217 942.053987 86.615217 Z M 1018.957635 21.387479 C 995.479929 131.367626 995.479929 132.62019 995.479929 133.526568 C 995.479929 140.997891 1002.007109 140.997891 1004.505942 140.997891 L 1045.960143 140.997891 C 1047.665896 140.997891 1049.220586 139.594265 1049.711541 137.888512 L 1052.481029 124.085131 L 1052.481029 123.443114 C 1052.481029 122.039487 1051.574651 120.975752 1050.019961 120.975752 L 1022.520203 120.975752 L 1041.787028 30.564556 L 1067.725801 30.564556 C 1069.437849 30.564556 1071.143601 29.160929 1071.445727 27.455176 L 1074.555107 13.003484 C 1074.555107 11.599857 1073.604669 10.498356 1072.049979 10.498356 L 1032.156763 10.498356 C 1029.349509 10.498356 1021.267639 10.498356 1018.957635 21.387479 Z M 1089.013094 21.387479 C 1065.535388 131.367626 1065.535388 132.62019 1065.535388 133.526568 C 1065.535388 140.846828 1071.905211 140.997891 1074.410339 140.997891 L 1109.947906 140.997891 C 1112.748865 140.997891 1120.679672 140.846828 1123.027442 130.115062 C 1146.316319 19.983852 1146.467382 18.920117 1146.467382 17.818616 C 1146.467382 10.649419 1140.09756 10.498356 1137.630198 10.498356 L 1101.866036 10.498356 C 1098.945485 10.498356 1091.323098 10.844542 1089.013094 21.387479 Z M 1100.00922 120.975752 L 1092.575662 120.975752 L 1111.842487 30.564556 L 1119.276045 30.564556 Z M 1168.528872 10.498356 C 1166.816825 10.498356 1165.111072 11.901983 1164.808946 13.607736 C 1138.379218 138.190638 1138.221861 138.499058 1138.221861 138.687887 C 1138.221861 140.053748 1139.474425 140.997891 1140.878052 140.997891 L 1157.337623 140.997891 C 1159.043376 140.997891 1160.598065 139.594265 1161.057549 137.888512 L 1173.646131 78.879533 C 1180.475436 138.190638 1180.318079 138.499058 1180.318079 138.687887 C 1180.318079 140.053748 1181.570643 140.997891 1182.97427 140.997891 L 1199.131715 140.997891 C 1200.837468 140.997891 1202.392158 139.594265 1202.845347 137.888512 L 1229.243603 13.003484 C 1229.243603 11.599857 1228.330931 10.498356 1226.776241 10.498356 L 1210.62509 10.498356 C 1208.913043 10.498356 1207.20729 11.901983 1206.905164 13.607736 L 1193.366144 77.324843 L 1187.487277 13.003484 C 1187.487277 11.599857 1186.543133 10.498356 1184.988443 10.498356 Z M 1250.071412 10.498356 C 1248.365659 10.498356 1246.659907 11.901983 1246.357781 13.607736 C 1219.921758 138.190638 1219.770695 138.499058 1219.770695 138.687887 C 1219.770695 140.053748 1221.023259 140.997891 1222.426886 140.997891 L 1238.886457 140.997891 C 1240.59221 140.997891 1242.1469 139.594265 1242.600089 137.888512 L 1255.194965 78.879533 C 1262.017977 138.190638 1261.866914 138.499058 1261.866914 138.687887 C 1261.866914 140.053748 1263.119478 140.997891 1264.523104 140.997891 L 1280.680549 140.997891 C 1282.386302 140.997891 1283.940992 139.594265 1284.394181 137.888512 L 1310.792438 13.003484 C 1310.792438 11.599857 1309.879766 10.498356 1308.325076 10.498356 L 1292.167631 10.498356 C 1290.461878 10.498356 1288.756125 11.901983 1288.453999 13.607736 L 1274.914979 77.324843 L 1269.036111 13.003484 C 1269.036111 11.599857 1268.085673 10.498356 1266.530983 10.498356 Z M 1327.906615 13.607736 C 1301.470593 138.190638 1301.31953 138.499058 1301.31953 138.687887 C 1301.31953 140.053748 1302.572094 140.997891 1303.975721 140.997891 L 1349.332382 140.997891 C 1351.038134 140.997891 1352.592824 139.594265 1353.052308 137.888512 L 1355.853267 124.085131 L 1355.853267 123.443114 C 1355.853267 122.039487 1354.909123 120.975752 1353.354434 120.975752 L 1329.763431 120.975752 L 1337.53688 84.147855 L 1353.505497 84.147855 C 1355.211249 84.147855 1356.954768 82.750522 1357.407957 81.038475 C 1360.523631 65.491576 1360.674694 65.340513 1360.674694 65.038387 C 1360.674694 63.634761 1359.573193 62.722088 1358.169566 62.722088 L 1342.163184 62.722088 L 1349.030256 30.564556 L 1372.621258 30.564556 C 1374.327011 30.564556 1376.032764 29.160929 1376.372656 27.455176 L 1379.44427 13.003484 C 1379.44427 11.599857 1378.537892 10.498356 1376.976908 10.498356 L 1331.620247 10.498356 C 1329.914494 10.498356 1328.208741 11.901983 1327.906615 13.607736 Z M 1394.852694 21.387479 C 1371.381283 131.367626 1371.381283 132.62019 1371.381283 133.526568 C 1371.381283 140.997891 1377.902169 140.997891 1380.407296 140.997891 L 1421.855203 140.997891 C 1423.560956 140.997891 1425.115645 139.594265 1425.612894 137.888512 L 1428.382383 124.085131 L 1428.382383 123.443114 C 1428.382383 122.039487 1427.46971 120.975752 1425.91502 120.975752 L 1398.421557 120.975752 L 1417.682088 30.564556 L 1443.627155 30.564556 C 1445.332908 30.564556 1447.038661 29.160929 1447.340787 27.455176 L 1450.450167 13.003484 C 1450.450167 11.599857 1449.506023 10.498356 1447.951333 10.498356 L 1408.051823 10.498356 C 1405.244569 10.498356 1397.168993 10.498356 1394.852694 21.387479 Z M 1441.581511 -14.338917 C 1439.875758 -14.338917 1438.170005 -12.93529 1437.867879 -11.229537 L 1434.909562 2.573843 C 1434.909562 4.468425 1435.86 5.683223 1437.41469 5.683223 L 1468.319659 5.683223 C 1440.177884 138.190638 1440.026821 138.499058 1440.026821 138.687887 C 1440.026821 140.053748 1441.279385 140.997891 1442.683012 140.997891 L 1460.999399 140.997891 C 1462.705151 140.997891 1464.266136 139.594265 1464.719325 137.888512 L 1492.8611 5.683223 L 1523.766069 5.683223 C 1525.471821 5.683223 1527.177574 4.317362 1527.485995 2.573843 L 1530.444311 -11.840083 C 1530.444311 -13.237416 1529.493873 -14.338917 1527.939184 -14.338917 Z M 1512.115336 10.498356 C 1510.409583 10.498356 1508.70383 11.901983 1508.39541 13.607736 C 1481.965682 138.190638 1481.814619 138.499058 1481.814619 138.687887 C 1481.814619 140.053748 1483.067183 140.997891 1484.47081 140.997891 L 1502.93826 140.997891 C 1504.644012 140.997891 1506.198702 139.594265 1506.689657 137.888512 L 1533.087914 13.003484 C 1533.087914 11.599857 1532.137476 10.498356 1530.582786 10.498356 Z M 1548.477455 21.387479 C 1524.99975 131.367626 1524.99975 132.62019 1524.99975 133.526568 C 1524.99975 140.846828 1531.369572 140.997891 1533.8747 140.997891 L 1569.412267 140.997891 C 1572.219521 140.997891 1580.144033 140.846828 1582.491804 130.115062 C 1605.780681 19.983852 1605.931744 18.920117 1605.931744 17.818616 C 1605.931744 10.649419 1599.561921 10.498356 1597.094559 10.498356 L 1561.330397 10.498356 C 1558.409846 10.498356 1550.78746 10.844542 1548.477455 21.387479 Z M 1559.473582 120.975752 L 1552.040024 120.975752 L 1571.306849 30.564556 L 1578.740406 30.564556 Z M 1627.993234 10.498356 C 1626.287481 10.498356 1624.575434 11.901983 1624.273308 13.607736 C 1597.84358 138.190638 1597.686222 138.499058 1597.686222 138.687887 C 1597.686222 140.053748 1598.938786 140.997891 1600.342413 140.997891 L 1616.801984 140.997891 C 1618.507737 140.997891 1620.062427 139.594265 1620.52191 137.888512 L 1633.110492 78.879533 C 1639.939798 138.190638 1639.788735 138.499058 1639.788735 138.687887 C 1639.788735 140.053748 1641.035005 140.997891 1642.438631 140.997891 L 1658.596076 140.997891 C 1660.301829 140.997891 1661.856519 139.594265 1662.316002 137.888512 L 1688.707965 13.003484 C 1688.707965 11.599857 1687.801587 10.498356 1686.246897 10.498356 L 1670.089452 10.498356 C 1668.383699 10.498356 1666.671652 11.901983 1666.369526 13.607736 L 1652.830506 77.324843 L 1646.951638 13.003484 C 1646.951638 11.599857 1646.007494 10.498356 1644.452805 10.498356 Z M 1627.993234 10.498356 " stroke="#79ffa0" stroke-width="2.912639" stroke-opacity="1" stroke-miterlimit="4"/></svg>